<mxfile host="app.diagrams.net" modified="2023-07-04T05:00:51.310Z" agent="Mozilla/5.0 (Windows NT 10.0; Win64; x64) AppleWebKit/537.36 (KHTML, like Gecko) Chrome/114.0.0.0 Safari/537.36 Edg/114.0.1823.67" version="21.5.2" etag="aQ2trBbn8pg1GMJH2Bg3" type="device">
  <diagram id="aHktXbCT-dlfAkA98zDA" name="Page-1">
    <mxGraphModel dx="1130" dy="810" grid="1" gridSize="10" guides="1" tooltips="1" connect="1" arrows="1" fold="1" page="0" pageScale="1" pageWidth="850" pageHeight="1100" math="0" shadow="0">
      <root>
        <mxCell id="0" />
        <mxCell id="1" parent="0" />
        <mxCell id="SS9zysMhur7PWLrkGHeK-3" value="" style="edgeStyle=orthogonalEdgeStyle;rounded=0;orthogonalLoop=1;jettySize=auto;html=1;" edge="1" parent="1" source="SS9zysMhur7PWLrkGHeK-1" target="SS9zysMhur7PWLrkGHeK-2">
          <mxGeometry relative="1" as="geometry" />
        </mxCell>
        <mxCell id="SS9zysMhur7PWLrkGHeK-1" value="&lt;div style=&quot;font-size: 15px;&quot;&gt;&lt;span style=&quot;background-color: initial;&quot;&gt;&lt;font style=&quot;font-size: 15px;&quot;&gt;APIS&lt;/font&gt;&lt;/span&gt;&lt;/div&gt;&lt;div style=&quot;font-size: 15px;&quot;&gt;&lt;ul&gt;&lt;li&gt;&lt;span style=&quot;background-color: initial;&quot;&gt;&lt;font style=&quot;font-size: 15px;&quot;&gt;Tasks&lt;/font&gt;&lt;/span&gt;&lt;/li&gt;&lt;li&gt;Calendar&lt;/li&gt;&lt;li&gt;Insights&lt;/li&gt;&lt;li&gt;&amp;nbsp;&lt;/li&gt;&lt;li&gt;&lt;br&gt;&lt;/li&gt;&lt;/ul&gt;&lt;/div&gt;" style="whiteSpace=wrap;html=1;aspect=fixed;align=left;" vertex="1" parent="1">
          <mxGeometry x="30" y="215" width="150" height="150" as="geometry" />
        </mxCell>
        <mxCell id="SS9zysMhur7PWLrkGHeK-11" value="" style="edgeStyle=orthogonalEdgeStyle;rounded=0;orthogonalLoop=1;jettySize=auto;html=1;" edge="1" parent="1" source="SS9zysMhur7PWLrkGHeK-2" target="SS9zysMhur7PWLrkGHeK-10">
          <mxGeometry relative="1" as="geometry" />
        </mxCell>
        <mxCell id="SS9zysMhur7PWLrkGHeK-2" value="&lt;font style=&quot;font-size: 15px;&quot;&gt;Client Side ML&lt;br&gt;&lt;ol&gt;&lt;li&gt;&lt;font style=&quot;font-size: 15px;&quot;&gt;Recommendation of tasks/ meetings&lt;/font&gt;&lt;/li&gt;&lt;li&gt;&lt;font style=&quot;font-size: 15px;&quot;&gt;Finding out the probability of cancellation of a meeting&lt;/font&gt;&lt;/li&gt;&lt;li&gt;&lt;font style=&quot;font-size: 15px;&quot;&gt;Intelligent source/coach selection&lt;/font&gt;&lt;/li&gt;&lt;/ol&gt;&lt;/font&gt;" style="whiteSpace=wrap;html=1;align=left;" vertex="1" parent="1">
          <mxGeometry x="250" y="150" width="280" height="280" as="geometry" />
        </mxCell>
        <mxCell id="SS9zysMhur7PWLrkGHeK-10" value="Send all the data to AugLoop and get the output of a generated calendat" style="whiteSpace=wrap;html=1;" vertex="1" parent="1">
          <mxGeometry x="640" y="150" width="150" height="280" as="geometry" />
        </mxCell>
        <mxCell id="SS9zysMhur7PWLrkGHeK-12" value="" style="shape=singleArrow;whiteSpace=wrap;html=1;arrowWidth=0.4;arrowSize=0.4;direction=east;" vertex="1" parent="1">
          <mxGeometry x="820" y="260" width="80" height="60" as="geometry" />
        </mxCell>
        <mxCell id="SS9zysMhur7PWLrkGHeK-14" value="Display on mobile client" style="whiteSpace=wrap;html=1;" vertex="1" parent="1">
          <mxGeometry x="940" y="205" width="90" height="170" as="geometry" />
        </mxCell>
        <mxCell id="SS9zysMhur7PWLrkGHeK-16" value="The various sources of data&lt;br&gt;" style="text;html=1;strokeColor=none;fillColor=none;align=center;verticalAlign=middle;whiteSpace=wrap;rounded=0;" vertex="1" parent="1">
          <mxGeometry x="60" y="150" width="90" height="30" as="geometry" />
        </mxCell>
      </root>
    </mxGraphModel>
  </diagram>
</mxfile>
